# Blender v2.76 (sub 0) OBJ File: 'treasure.blend'
# www.blender.org
v -0.500000 -0.146447 -0.353554
v 0.500000 -0.146447 -0.353554
v -0.500000 -0.222215 -0.415735
v 0.500000 -0.222215 -0.415735
v -0.500000 -0.308659 -0.461940
v 0.500000 -0.308659 -0.461940
v -0.500000 -0.402456 -0.490393
v 0.500000 -0.402456 -0.490393
v 0.500000 -0.500000 -0.000000
v -0.500000 -0.500000 -0.000000
v 0.500000 -0.402456 -0.490393
v -0.500000 -0.402456 -0.490393
v 0.500000 -0.308659 -0.461940
v -0.500000 -0.308659 -0.461940
v 0.500000 -0.222215 -0.415735
v -0.500000 -0.222215 -0.415735
v 0.500000 -0.146447 -0.353554
v -0.500000 -0.146447 -0.353554
v 0.500000 -0.084265 -0.277786
v -0.500000 -0.084266 -0.277786
v 0.500000 -0.038060 -0.191342
v -0.500000 -0.038060 -0.191342
v 0.500000 -0.009607 -0.097546
v -0.500000 -0.009607 -0.097546
v 0.500000 0.000000 -0.000000
v -0.500000 0.000000 -0.000000
v 0.500000 -0.009607 0.097545
v -0.500000 -0.009607 0.097545
v 0.500000 -0.038060 0.191341
v -0.500000 -0.038060 0.191341
v 0.500000 -0.084265 0.277785
v -0.500000 -0.084265 0.277785
v -0.050000 -0.450000 0.475000
v -0.050000 -0.550000 0.475000
v -0.050000 -0.450000 0.525000
v -0.050000 -0.550000 0.525000
v -0.500000 -0.500000 -0.500000
v -0.500000 -1.000000 -0.500000
v -0.500000 -0.500000 0.500000
v -0.500000 -1.000000 0.500000
v 0.500000 -1.000000 0.500000
v 0.500000 -0.500000 0.500000
v 0.500000 -1.000000 -0.500000
v 0.500000 -0.500000 -0.500000
v -0.500000 -0.500000 -0.500000
v 0.500000 -0.500000 -0.500000
v 0.500000 -0.084265 -0.277786
v -0.500000 -0.084266 -0.277786
v 0.500000 -0.038060 -0.191342
v -0.500000 -0.038060 -0.191342
v 0.500000 -0.009607 -0.097546
v -0.500000 -0.009607 -0.097546
v 0.500000 0.000000 -0.000000
v -0.500000 0.000000 -0.000000
v 0.500000 -0.009607 0.097545
v -0.500000 -0.009607 0.097545
v 0.500000 -0.038060 0.191341
v -0.500000 -0.038060 0.191341
v 0.500000 -0.084265 0.277785
v -0.500000 -0.084265 0.277785
v 0.500000 -0.146446 0.353553
v -0.500000 -0.146446 0.353553
v 0.500000 -0.222215 0.415735
v -0.500000 -0.222215 0.415735
v 0.500000 -0.308658 0.461940
v -0.500000 -0.308658 0.461940
v 0.500000 -0.402455 0.490393
v -0.500000 -0.402455 0.490393
v 0.500000 -0.500000 0.500000
v -0.500000 -0.500000 0.500000
v 0.500000 -0.500000 -0.500000
v -0.500000 -0.500000 -0.500000
v 0.050000 -0.450000 0.475000
v 0.050000 -0.550000 0.475000
v 0.050000 -0.450000 0.525000
v 0.050000 -0.550000 0.525000
v -0.500000 -0.500000 0.500000
v 0.500000 -0.500000 0.500000
v -0.500000 -0.402455 0.490393
v 0.500000 -0.402455 0.490393
v -0.500000 -0.308658 0.461940
v 0.500000 -0.308658 0.461940
v -0.500000 -0.222215 0.415735
v 0.500000 -0.222215 0.415735
v -0.500000 -0.146446 0.353553
v 0.500000 -0.146446 0.353553
vt 0.195312 0.988281
vt 0.093750 0.988281
vt 0.144531 0.492188
vt 0.636719 0.875000
vt 0.636719 0.937500
vt 0.000000 0.937500
vt 0.636719 1.000000
vt 0.000000 1.000000
vt 0.636719 0.812500
vt 0.000000 0.875000
vt 0.636719 0.750000
vt 0.000000 0.812500
vt 0.636719 0.687500
vt 0.000000 0.750000
vt 0.636719 0.125000
vt 0.636719 0.187500
vt 0.000000 0.187500
vt 0.636719 0.062500
vt 0.000000 0.125000
vt 0.886719 0.906250
vt 0.789062 0.906250
vt 0.789062 0.859375
vt 0.789062 0.714844
vt 0.886719 0.714844
vt 0.886719 0.761719
vt 0.789062 0.761719
vt 0.886719 0.859375
vt 0.933594 0.761719
vt 0.636719 0.000000
vt 0.000000 0.062500
vt 0.742188 0.859375
vt 0.742188 0.761719
vt 1.000000 0.636719
vt 0.679688 0.636719
vt 0.679688 0.000000
vt 1.000000 0.000000
vt 0.636719 0.625000
vt 0.000000 0.687500
vt 0.636719 0.562500
vt 0.000000 0.625000
vt 0.636719 0.500000
vt 0.000000 0.562500
vt 0.636719 0.437500
vt 0.000000 0.500000
vt 0.636719 0.375000
vt 0.000000 0.437500
vt 0.636719 0.312500
vt 0.000000 0.375000
vt 0.636719 0.250000
vt 0.000000 0.312500
vt 0.000000 0.250000
vt 0.933594 0.859375
vt 0.000000 0.000000
vn -1.000000 0.000000 0.000000
vn 0.000000 0.290300 -0.956900
vn 0.000000 0.098000 -0.995200
vn -0.000000 0.471400 -0.881900
vn -0.000000 0.634400 -0.773000
vn -0.000000 0.773000 -0.634400
vn 1.000000 0.000000 0.000000
vn -0.000000 0.471400 0.881900
vn 0.000000 0.290300 0.956900
vn 0.000000 1.000000 0.000000
vn 0.000000 -1.000000 0.000000
vn 0.000000 0.000000 1.000000
vn -0.000000 0.098000 0.995200
vn 0.000000 0.000000 -1.000000
vn -0.000000 0.881900 -0.471400
vn -0.000000 0.956900 -0.290300
vn -0.000000 0.995200 -0.098000
vn -0.000000 0.995200 0.098000
vn -0.000000 0.956900 0.290300
vn -0.000000 0.881900 0.471400
vn -0.000000 0.773000 0.634400
vn -0.000000 0.634400 0.773000
s off
f 79/1/1 81/2/1 10/3/1
f 22/2/1 20/1/1 10/3/1
f 30/2/1 28/1/1 10/3/1
f 12/1/1 45/2/1 10/3/1
f 6/4/2 8/5/2 7/6/2
f 81/2/1 83/1/1 10/3/1
f 20/1/1 18/2/1 10/3/1
f 8/5/3 71/7/3 72/8/3
f 4/9/4 6/4/4 5/10/4
f 28/1/1 26/2/1 10/3/1
f 2/11/5 4/9/5 3/12/5
f 47/13/6 2/11/6 1/14/6
f 86/2/7 84/1/7 9/3/7
f 19/1/7 21/2/7 9/3/7
f 65/15/8 63/16/8 64/17/8
f 67/18/9 65/15/9 66/19/9
f 27/1/7 29/2/7 9/3/7
f 73/20/10 33/21/10 35/22/10
f 46/2/7 11/1/7 9/3/7
f 34/23/11 74/24/11 76/25/11
f 84/1/7 82/2/7 9/3/7
f 17/2/7 19/1/7 9/3/7
f 35/22/12 36/26/12 76/25/12
f 75/27/7 76/25/7 74/28/7
f 69/29/13 67/18/13 68/30/13
f 33/31/1 34/32/1 36/26/1
f 39/33/12 40/34/12 41/35/12
f 42/33/7 41/34/7 43/35/7
f 44/35/14 43/36/14 38/33/14
f 37/35/1 38/36/1 40/33/1
f 25/2/7 27/1/7 9/3/7
f 83/1/1 85/2/1 10/3/1
f 18/2/1 16/1/1 10/3/1
f 26/2/1 24/1/1 10/3/1
f 85/2/1 32/1/1 10/3/1
f 16/1/1 14/2/1 10/3/1
f 77/2/1 79/1/1 10/3/1
f 24/1/1 22/2/1 10/3/1
f 32/1/1 30/2/1 10/3/1
f 14/2/1 12/1/1 10/3/1
f 15/1/7 17/2/7 9/3/7
f 49/37/15 47/13/15 48/38/15
f 51/39/16 49/37/16 50/40/16
f 23/1/7 25/2/7 9/3/7
f 53/41/17 51/39/17 52/42/17
f 55/43/18 53/41/18 54/44/18
f 31/1/7 86/2/7 9/3/7
f 13/2/7 15/1/7 9/3/7
f 57/45/19 55/43/19 56/46/19
f 80/1/7 78/2/7 9/3/7
f 21/2/7 23/1/7 9/3/7
f 59/47/20 57/45/20 58/48/20
f 61/49/21 59/47/21 60/50/21
f 29/2/7 31/1/7 9/3/7
f 11/1/7 13/2/7 9/3/7
f 63/16/22 61/49/22 62/51/22
f 82/2/7 80/1/7 9/3/7
f 5/10/2 6/4/2 7/6/2
f 7/6/3 8/5/3 72/8/3
f 3/12/4 4/9/4 5/10/4
f 1/14/5 2/11/5 3/12/5
f 48/38/6 47/13/6 1/14/6
f 66/19/8 65/15/8 64/17/8
f 68/30/9 67/18/9 66/19/9
f 75/27/10 73/20/10 35/22/10
f 36/26/11 34/23/11 76/25/11
f 75/27/12 35/22/12 76/25/12
f 73/52/7 75/27/7 74/28/7
f 70/53/13 69/29/13 68/30/13
f 35/22/1 33/31/1 36/26/1
f 42/36/12 39/33/12 41/35/12
f 44/36/7 42/33/7 43/35/7
f 37/34/14 44/35/14 38/33/14
f 39/34/1 37/35/1 40/33/1
f 50/40/15 49/37/15 48/38/15
f 52/42/16 51/39/16 50/40/16
f 54/44/17 53/41/17 52/42/17
f 56/46/18 55/43/18 54/44/18
f 58/48/19 57/45/19 56/46/19
f 60/50/20 59/47/20 58/48/20
f 62/51/21 61/49/21 60/50/21
f 64/17/22 63/16/22 62/51/22
